<?xml version="1.0" standalone="no"?><!DOCTYPE svg PUBLIC "-//W3C//DTD SVG 1.1//EN" "http://www.w3.org/Graphics/SVG/1.1/DTD/svg11.dtd"><svg t="1544062942105" class="icon" style="" viewBox="0 0 1024 1024" version="1.1" xmlns="http://www.w3.org/2000/svg" p-id="1377" xmlns:xlink="http://www.w3.org/1999/xlink" width="200" height="200"><defs><style type="text/css"></style></defs><path d="M279.104007 767.935976a351.999989 351.999989 0 0 1-96.319997-388.479988A351.999989 351.999989 0 0 1 512.16 151.999995a351.999989 351.999989 0 0 1 329.18399 227.743993 351.999989 351.999989 0 0 1-96.671997 388.415988" fill="#C7C6CE" p-id="1378"></path><path d="M300.288007 749.567977a319.99999 319.99999 0 0 1-87.583998-353.183989 319.99999 319.99999 0 0 1 299.423991-206.751994 319.99999 319.99999 0 0 1 299.263991 207.039994A319.99999 319.99999 0 0 1 723.519993 749.759977" fill="#3C3B41" p-id="1379"></path><path d="M279.104007 767.999976h465.567986l53.183998 103.999997-13.855999 23.999999h-543.999984l-13.855999-23.999999z" fill="#006EF4" p-id="1380"></path><path d="M241.120008 895.999972c-5.728 0-12.128-3.04-14.975999-8a16.959999 16.959999 0 0 1 0.352-16.511999M783.103992 895.999972a17.471999 17.471999 0 0 0 14.751999-8 16.255999 16.255999 0 0 0-0.128-16.127999" fill="#006EF4" p-id="1381"></path><path d="M275.904007 486.559985l-6.591999-25.407999-25.408-6.592 25.408-6.624 6.591999-25.375999 6.624 25.375999 25.375999 6.624-25.375999 6.592zM598.399997 320.89599l-4.96-19.071999-19.039999-4.928 19.039999-4.96 4.96-19.04 4.96 19.04 19.04 4.96-19.04 4.928zM691.615994 572.607982l-3.328-12.703999-12.671999-3.296 12.671999-3.296 3.328-12.704 3.296 12.704 12.704 3.296-12.704 3.296zM789.631991 540.095983l-6.623999-25.407999-25.376-6.592 25.376-6.624 6.623999-25.375999 6.592 25.375999 25.407999 6.624-25.407999 6.592z" fill="#C7C6CE" p-id="1382"></path><path d="M480.992001 594.751981h62.015998v155.007996H480.960001z" fill="#B48966" p-id="1383"></path><path d="M511.648 284.767991a7.744 7.744 0 0 0-6.4 3.84L435.520002 397.119988a7.744 7.744 0 0 0 0 7.775999 7.744 7.744 0 0 0 6.72 3.84h139.519996a7.744 7.744 0 0 0 6.72-3.84 7.744 7.744 0 0 0 0-7.775999l-69.759998-108.479997a7.744 7.744 0 0 0-6.72-3.872 7.744 7.744 0 0 0-0.352 0z" fill="#00C379" p-id="1384"></path><path d="M511.488 343.679989a10.88 10.88 0 0 0-8.864 5.408l-97.663997 151.871995a10.88 10.88 0 0 0 0 10.88 10.88 10.88 0 0 0 9.376 5.44h195.327994a10.88 10.88 0 0 0 9.376-5.44 10.88 10.88 0 0 0 0-10.88l-97.663997-151.871995a10.88 10.88 0 0 0-9.376-5.44 10.88 10.88 0 0 0-0.512 0z" fill="#00C379" p-id="1385"></path><path d="M512 402.559987a13.952 13.952 0 0 0-12.096 6.976L374.400004 604.831981a13.952 13.952 0 0 0 0 13.952 13.952 13.952 0 0 0 12.096 6.975999h251.071992a13.952 13.952 0 0 0 12.096-6.975999 13.952 13.952 0 0 0 0-13.952l-125.567996-195.295994A13.952 13.952 0 0 0 512 402.559987z" fill="#00C379" p-id="1386"></path><path d="M527.04 300.223991c-0.864 0.576-14.4-8.416-15.424-8.448-1.024 0-13.92 9.024-14.72 8.416-0.864-0.64 3.52-16.319999 3.2-17.28-0.288-0.96-12.864-10.496-12.511999-11.423999 0.352-0.992 16.607999-1.664 17.439999-2.272 0.832-0.608 5.984-15.488 7.008-15.456 1.056 0.032 6.688 15.264 7.52 15.904 0.832 0.608 16.575999 0.896 16.863999 1.856 0.32 1.024-12.48 11.104-12.799999 12.095999-0.32 0.96 4.288 16.031999 3.456 16.608z" fill="#E6001F" p-id="1387"></path><path d="M496.512 339.007989a7.744 7.744 0 0 1-7.775999 7.744 7.744 7.744 0 0 1-7.744-7.744 7.744 7.744 0 0 1 7.744-7.743999 7.744 7.744 0 0 1 7.775999 7.743999z" fill="#E6001F" p-id="1388"></path><path d="M558.495999 385.503988a7.744 7.744 0 0 1-7.744 7.744 7.744 7.744 0 0 1-7.744-7.744 7.744 7.744 0 0 1 7.744-7.744 7.744 7.744 0 0 1 7.744 7.744z" fill="#FF9A00" p-id="1389"></path><path d="M473.248001 447.519986a7.744 7.744 0 0 1-7.744 7.744 7.744 7.744 0 0 1-7.743999-7.744 7.744 7.744 0 0 1 7.743999-7.776 7.744 7.744 0 0 1 7.744 7.776z" fill="#E6001F" p-id="1390"></path><path d="M589.503998 494.015985a7.744 7.744 0 0 1-7.744 7.743999 7.744 7.744 0 0 1-7.776-7.743999 7.744 7.744 0 0 1 7.776-7.744 7.744 7.744 0 0 1 7.744 7.744z" fill="#FF9A00" p-id="1391"></path><path d="M527.488 470.751985a7.744 7.744 0 0 1-7.744 7.744 7.744 7.744 0 0 1-7.744-7.744 7.744 7.744 0 0 1 7.744-7.743999 7.744 7.744 0 0 1 7.744 7.743999z" fill="#006EF4" p-id="1392"></path><path d="M449.984002 494.015985a7.744 7.744 0 0 1-7.744 7.743999 7.744 7.744 0 0 1-7.744-7.743999 7.744 7.744 0 0 1 7.744-7.744 7.744 7.744 0 0 1 7.744 7.744z" fill="#00A654" p-id="1393"></path><path d="M573.983998 555.999983a7.744 7.744 0 0 1-7.744 7.743999 7.744 7.744 0 0 1-7.743999-7.743999 7.744 7.744 0 0 1 7.743999-7.744 7.744 7.744 0 0 1 7.744 7.744z" fill="#006EF4" p-id="1394"></path><path d="M449.984002 555.999983a7.744 7.744 0 0 1-7.744 7.743999 7.744 7.744 0 0 1-7.744-7.743999 7.744 7.744 0 0 1 7.744-7.744 7.744 7.744 0 0 1 7.744 7.744z" fill="#E6001F" p-id="1395"></path><path d="M527.488 587.007982a7.744 7.744 0 0 1-7.744 7.743999 7.744 7.744 0 0 1-7.744-7.743999 7.744 7.744 0 0 1 7.744-7.744 7.744 7.744 0 0 1 7.744 7.744z" fill="#00A654" p-id="1396"></path><path d="M620.479997 602.495981a7.744 7.744 0 0 1-7.744 7.776 7.744 7.744 0 0 1-7.744-7.776 7.744 7.744 0 0 1 7.744-7.744 7.744 7.744 0 0 1 7.776 7.744z" fill="#FF9A00" p-id="1397"></path><path d="M464.256001 408.767987l-9.983999 15.488h115.455996l-9.983999-15.488h-95.487998zM430.688003 517.247984l-9.952 15.519999h182.527994l-9.92-15.519999h-162.655994z" fill="#00A654" p-id="1398"></path><path d="M419.008003 602.495981a7.744 7.744 0 0 1-7.744 7.776 7.744 7.744 0 0 1-7.776-7.776 7.744 7.744 0 0 1 7.776-7.744 7.744 7.744 0 0 1 7.744 7.744z" fill="#006EF4" p-id="1399"></path><path d="M480.992001 625.75998h62.015998v15.488H480.960001z" fill="#8A6845" p-id="1400"></path><path d="M337.696005 578.975982l-3.327999-12.704-12.672-3.296 12.672-3.295999 3.327999-12.704 3.296 12.704 12.704 3.295999-12.704 3.296zM614.079997 461.599986l-3.328-12.704-12.672-3.296 12.672-3.296 3.328-12.703999 3.296 12.703999 12.703999 3.296-12.703999 3.296zM397.088004 286.239991l-3.296-12.704-12.704-3.295999 12.704-3.296 3.296-12.704 3.295999 12.704 12.704 3.296-12.704 3.295999zM459.296002 716.159978l-3.296-12.704-12.704-3.296 12.704-3.328 3.296-12.671999 3.328 12.671999 12.671999 3.328-12.671999 3.296zM403.904003 441.759986l-4.959999-19.039999-19.04-4.96 19.04-4.96 4.959999-19.039999 4.96 19.039999 19.04 4.96-19.04 4.96zM637.503996 704.351978l-4.96-19.039999-19.039999-4.96 19.039999-4.96 4.96-19.04 4.96 19.04 19.039999 4.96-19.039999 4.96z" fill="#C7C6CE" p-id="1401"></path></svg>